<?xml version="1.0" standalone="no"?><svg xmlns="http://www.w3.org/2000/svg" viewBox="0 0 1440 320"><path fill="#8c5ccb" fill-opacity="1" d="M0,32L16,48C32,64,64,96,96,128C128,160,160,192,192,597.3C224,203,256,181,288,186.7C320,192,352,224,384,245.3C416,267,448,277,480,250.7C512,224,544,160,576,160C608,160,640,224,672,234.7C704,245,736,203,768,181.3C800,160,832,160,864,138.7C896,117,928,75,960,48C992,21,1024,11,1056,42.7C1088,75,1120,149,1152,202.7C1184,256,1216,288,1248,266.7C1280,245,1312,171,1344,133.3C1376,96,1408,96,1424,96L1440,96L1440,320L1424,320C1408,320,1376,320,1344,320C1312,320,1280,320,1248,320C1216,320,1184,320,1152,320C1120,320,1088,320,1056,320C1024,320,992,320,960,320C928,320,896,320,864,320C832,320,800,320,768,320C736,320,704,320,672,320C640,320,608,320,576,320C544,320,512,320,480,320C448,320,416,320,384,320C352,320,320,320,288,320C256,320,224,320,192,320C160,320,128,320,96,320C64,320,32,320,16,320L0,320Z"></path></svg>