<?xml version="1.0" standalone="no"?><svg xmlns="http://www.w3.org/2000/svg" viewBox="0 0 1440 320"><path fill="#4099ff" fill-opacity="1" d="M0,32L16,48C32,64,64,96,96,128C128,160,160,192,192,197.3C224,203,256,181,288,186.7C320,192,352,224,384,245.3C416,267,448,277,480,250.7C512,224,544,160,576,160C608,160,640,224,672,234.7C704,245,736,203,768,181.3C800,160,832,160,864,138.7C896,117,928,75,960,48C992,21,1024,11,1056,42.7C1088,75,1120,149,1152,202.7C1184,256,1216,288,1248,266.7C1280,245,1312,171,1344,133.3C1376,96,1408,96,1424,96L1440,96L1440,0L1424,0C1408,0,1376,0,1344,0C1312,0,1280,0,1248,0C1216,0,1184,0,1152,0C1120,0,1088,0,1056,0C1024,0,992,0,960,0C928,0,896,0,864,0C832,0,800,0,768,0C736,0,704,0,672,0C640,0,608,0,576,0C544,0,512,0,480,0C448,0,416,0,384,0C352,0,320,0,288,0C256,0,224,0,192,0C160,0,128,0,96,0C64,0,32,0,16,0L0,0Z"></path></svg>